<svg version="1.1" id="Layer_1" xmlns="http://www.w3.org/2000/svg" xmlns:xlink="http://www.w3.org/1999/xlink" x="0px" y="0px"
	 width="100%" viewBox="0 0 1024 1024" enable-background="new 0 0 1024 1024" xml:space="preserve">
<path fill="#000000" opacity="1.000000" stroke="none" 
	d="
M555.186401,558.373230 
	C488.081360,572.693848 421.400909,586.981445 354.693268,601.140930 
	C351.411407,601.837524 349.380096,603.191895 347.931915,606.195862 
	C343.747498,614.875671 339.595703,623.555786 336.435120,632.397949 
	C337.832306,634.505005 339.540802,634.192566 341.188538,634.190186 
	C394.347107,634.113892 447.505737,634.066284 500.664185,633.940063 
	C504.010223,633.932129 506.266205,634.440674 507.223511,638.293640 
	C511.979706,657.436279 521.789307,673.554321 536.769470,686.468689 
	C537.366638,686.983521 537.820557,687.664612 538.308350,688.230042 
	C537.292480,689.994507 535.809937,689.349731 534.589355,689.349976 
	C444.933838,689.367188 355.278320,689.358765 265.622803,689.344421 
	C259.353180,689.343384 259.289490,689.242981 260.582489,683.222900 
	C280.054352,592.565247 326.927704,518.753174 398.368744,460.308319 
	C450.917114,417.319275 511.233368,390.187408 577.057190,374.795288 
	C589.191589,371.957825 601.450317,369.651337 613.657837,367.129395 
	C614.602600,366.934235 615.596069,366.975159 617.159180,366.864380 
	C617.710449,373.273956 615.736572,379.156708 614.761169,385.070740 
	C610.080994,413.447754 605.108337,441.776489 600.343811,470.139862 
	C599.939819,472.544312 599.260254,474.221039 596.712219,474.788635 
	C578.851746,478.767303 560.998596,482.778595 543.136597,486.750305 
	C542.708191,486.845551 542.204529,486.602234 541.007385,486.384094 
	C542.395996,478.035095 543.741089,469.751587 545.163208,461.481323 
	C545.867126,457.387909 546.793640,453.332336 547.474609,449.235565 
	C548.411926,443.596069 546.692871,442.095459 541.215393,443.809998 
	C525.460632,448.741425 510.099823,454.672791 495.203522,461.821777 
	C459.529144,478.942352 427.831360,501.528931 400.628906,530.330139 
	C399.170563,531.874146 397.371094,533.210144 396.752869,537.057373 
	C463.304016,523.253296 529.041260,508.432495 595.625793,494.294373 
	C595.618347,501.180145 594.098328,506.954803 593.178162,512.763123 
	C591.358643,524.248840 589.182373,535.677734 587.235962,547.144043 
	C586.703491,550.280396 585.426636,551.926819 581.926697,552.559265 
	C573.094666,554.155151 564.372009,556.356079 555.186401,558.373230 
z"/>
<path fill="#000000" opacity="1.000000" stroke="none" 
	d="
M534.146362,655.758911 
	C522.817688,636.608276 519.906982,616.160645 522.470215,594.774475 
	C523.757507,584.034302 524.018005,584.013062 534.306824,581.763367 
	C548.438416,578.673401 562.585571,575.653381 576.739685,572.668213 
	C578.293518,572.340454 579.893921,571.397217 582.039307,572.716492 
	C582.233032,579.243042 580.543213,585.858643 579.838196,592.544250 
	C579.188599,598.704529 578.630981,604.909119 579.780457,610.956726 
	C582.874695,627.236633 591.840027,634.367737 608.799438,634.661255 
	C633.593872,635.090332 655.067871,619.844055 664.588928,595.123535 
	C669.537415,582.275208 671.239685,568.700439 673.529785,555.272400 
	C680.931946,511.870514 688.204773,468.446594 695.507019,425.027740 
	C699.613098,400.613495 703.681396,376.192871 707.759583,351.773956 
	C708.223389,348.997223 709.059631,347.042938 712.469849,346.371338 
	C728.947815,343.126190 745.370239,339.595581 761.792603,336.074371 
	C765.591370,335.259857 766.670776,336.691162 766.067383,340.261475 
	C760.028076,375.993164 753.982178,411.723816 748.010681,447.466888 
	C742.395020,481.080322 737.025269,514.735657 731.244873,548.320557 
	C727.331360,571.058228 725.301514,594.281921 716.033508,615.786255 
	C700.980957,650.712219 676.614380,676.098999 639.073486,685.803772 
	C612.817810,692.591248 586.248962,692.742126 561.059021,680.269714 
	C549.944153,674.766357 541.034058,666.577271 534.146362,655.758911 
z"/>
</svg>