<?xml version="1.0" encoding="UTF-8"?>
<svg version="1.1" xmlns="http://www.w3.org/2000/svg" width="1024" height="1024">
<path d="M0 0 C0.66 0 1.32 0 2 0 C2.23834027 14.22891403 2.01347371 28.36643101 1.0625 42.5625 C0.97564941 43.8626001 0.88879883 45.1627002 0.79931641 46.50219727 C0.55279504 50.00339306 0.28467597 53.50171935 0 57 C-0.07234863 57.93312012 -0.14469727 58.86624023 -0.21923828 59.82763672 C-0.75698022 65.75698022 -0.75698022 65.75698022 -3 68 C-5.97 64.04 -8.94 60.08 -12 56 C-14.60781283 59.47708377 -16.36908176 62.54777376 -18.2578125 66.42578125 C-18.88507575 67.70341521 -19.51260855 68.98091687 -20.14038086 70.25830078 C-20.46457001 70.92122131 -20.78875916 71.58414185 -21.12277222 72.26715088 C-26.6158419 83.47742207 -32.18198184 94.52221067 -39 105 C-39.63808594 105.98613281 -40.27617188 106.97226562 -40.93359375 107.98828125 C-42.92529654 111.01390622 -44.95746161 114.00847826 -47 117 C-47.85323445 118.2692827 -48.70607768 119.53882844 -49.55859375 120.80859375 C-55.66685224 129.85697235 -62.13113331 138.51709422 -69 147 C-69.74894531 147.93199219 -70.49789063 148.86398437 -71.26953125 149.82421875 C-79.4778933 159.9552602 -87.75625464 170.02466848 -97.1171875 179.1171875 C-98.72556137 180.72556137 -100.15433622 182.34381271 -101.5625 184.125 C-104.14938971 187.17620324 -106.93413205 189.6367986 -109.97265625 192.22265625 C-111.85035132 193.86880511 -113.58127698 195.57735116 -115.3125 197.375 C-119.86883277 201.99290483 -124.92901828 205.96611994 -130 210 C-130.58861816 210.47083008 -131.17723633 210.94166016 -131.78369141 211.42675781 C-133.64413269 212.91374395 -135.50872166 214.39534827 -137.375 215.875 C-138.24910522 216.57157715 -138.24910522 216.57157715 -139.14086914 217.28222656 C-147.83328317 224.12798775 -147.83328317 224.12798775 -151.40136719 223.73657227 C-154.12968899 222.96324017 -155.72909273 222.03674851 -157.9765625 220.33203125 C-158.72043213 219.77523682 -159.46430176 219.21844238 -160.23071289 218.64477539 C-161.02082764 218.04012451 -161.81094238 217.43547363 -162.625 216.8125 C-164.3240676 215.53625708 -166.02329094 214.26022148 -167.72265625 212.984375 C-168.59293457 212.32630859 -169.46321289 211.66824219 -170.35986328 210.99023438 C-176.85580597 206.09334841 -183.42365985 201.29258663 -189.98535156 196.484375 C-191.75752806 195.17865116 -193.51742297 193.85856092 -195.2734375 192.53125 C-196.15257812 191.8815625 -197.03171875 191.231875 -197.9375 190.5625 C-198.64777344 190.02753906 -199.35804688 189.49257813 -200.08984375 188.94140625 C-201.93598289 187.83483013 -201.93598289 187.83483013 -203.9375 188.12109375 C-216.86739701 193.63099305 -228.23525731 206.04913106 -238.43212891 215.54980469 C-240.03046219 217.02817587 -241.64377743 218.48844409 -243.26171875 219.9453125 C-250.626476 226.60280022 -257.39936302 233.58946891 -264 241 C-264.75796875 241.81984375 -265.5159375 242.6396875 -266.296875 243.484375 C-272.0819415 249.76178759 -277.36961478 256.36324805 -282.56298828 263.13037109 C-283.51040486 264.3630106 -284.46182084 265.59258789 -285.41748047 266.81884766 C-304.27326815 291.02131595 -319.65121451 317.42893468 -333 345 C-333.33 345 -333.66 345 -334 345 C-334.25993885 339.15531436 -333.32953414 334.04116713 -331.9375 328.375 C-331.71489502 327.46129639 -331.49229004 326.54759277 -331.26293945 325.60620117 C-316.09813584 265.20033666 -278.30155905 208.23070744 -231 168 C-230.04351562 167.16597656 -229.08703125 166.33195313 -228.1015625 165.47265625 C-220.40351852 158.8030719 -212.37677084 152.78964222 -204 147 C-186.81892554 157.40703849 -169.12442137 169.52697461 -154.00537109 182.74365234 C-152.10538412 184.21166458 -152.10538412 184.21166458 -149.96899414 183.83789062 C-147.89082708 182.95354229 -146.29376518 181.9596903 -144.49609375 180.59375 C-143.84374756 180.10213379 -143.19140137 179.61051758 -142.51928711 179.10400391 C-141.83229736 178.57468262 -141.14530762 178.04536133 -140.4375 177.5 C-139.72150635 176.9539209 -139.0055127 176.4078418 -138.26782227 175.84521484 C-136.17138673 174.23916395 -134.08399244 172.62215149 -132 171 C-131.0203125 170.23945313 -130.040625 169.47890625 -129.03125 168.6953125 C-116.36904945 158.58843555 -104.95755618 147.04904373 -93.5 135.625 C-92.9814444 135.10912323 -92.46288879 134.59324646 -91.92861938 134.06173706 C-86.06804496 128.22414756 -80.32459023 122.3387979 -75 116 C-74.28714844 115.15695312 -73.57429688 114.31390625 -72.83984375 113.4453125 C-70.99978099 111.20096491 -69.17109843 108.9479521 -67.35449219 106.68457031 C-66.41351286 105.5142824 -65.46855732 104.34718493 -64.52050781 103.18261719 C-56.68993441 93.53639936 -49.50125272 83.52865618 -42.625 73.1875 C-42.25263214 72.62812744 -41.88026428 72.06875488 -41.49661255 71.49243164 C-36.14782957 63.43694473 -31.02187546 55.26160376 -26 47 C-26.62962646 47.01023193 -27.25925293 47.02046387 -27.90795898 47.03100586 C-32.39826489 47.09479283 -36.5788925 46.90689385 -41 46 C-34.13796775 37.83974543 -27.00892998 29.88425831 -19.375 22.4375 C-14.49487361 17.62721441 -10.27566868 12.34458585 -6 7 C-4.0516911 4.59791831 -2.08472093 2.28810834 0 0 Z " fill="#000000" transform="translate(686,243)"/>
<path d="M0 0 C2.42553183 0.00112973 4.85106503 0.00049217 7.27659607 -0.00177002 C12.47608511 -0.00267708 17.67539266 0.00857235 22.87482643 0.03118134 C30.39208575 0.06384758 37.90924826 0.07412319 45.42657086 0.0791333 C57.6262328 0.08786318 69.82578706 0.11441571 82.02539062 0.15234375 C93.86815863 0.18912386 105.71089726 0.21740614 117.55371094 0.234375 C118.28509644 0.23542589 119.01648195 0.23647679 119.77003065 0.23755953 C123.43959375 0.24278011 127.10915706 0.24783484 130.7787205 0.25280714 C161.16660361 0.29419723 191.55435612 0.36488204 221.94213867 0.45410156 C220.26372961 4.86915967 218.02281485 8.62094648 215.37963867 12.51660156 C214.9363623 13.17490967 214.49308594 13.83321777 214.03637695 14.51147461 C204.7962795 28.12491118 194.57239 41.24139385 183.59586143 53.50535107 C181.83002534 55.52790666 181.83002534 55.52790666 180.0273838 58.16473103 C176.63233314 62.58093276 173.95161395 65.88959975 168.37983322 67.45482445 C164.07086353 67.80686252 159.88465502 67.81826477 155.56860352 67.70288086 C153.93168346 67.69977311 152.2947481 67.70152938 150.65783691 67.70774841 C146.23985065 67.71088911 141.82518745 67.64648784 137.40796995 67.56943488 C132.78237747 67.50040164 128.1566983 67.49418808 123.53067017 67.4811554 C114.78252888 67.44704334 106.03591005 67.35688537 97.28843749 67.24631101 C87.32488668 67.1231141 77.36126095 67.06281806 67.3971374 67.00766122 C46.91128993 66.89285905 26.42681042 66.69953284 5.94213867 66.45410156 C5.95324173 67.20721115 5.96434479 67.96032074 5.9757843 68.73625183 C6.07607614 75.84250609 6.15214858 82.94851419 6.20119953 90.05527782 C6.22726562 93.70879049 6.26260644 97.36171716 6.31933594 101.01489258 C6.37376632 104.54219104 6.40358169 108.06892684 6.41652489 111.59661293 C6.43022506 113.59366558 6.46924161 115.59049263 6.50862122 117.58720398 C6.51174478 127.68510079 6.51174478 127.68510079 3.55957031 130.66796875 C2.69581787 131.25739258 1.83206543 131.84681641 0.94213867 132.45410156 C-27.92382178 161.8440316 -49.4577457 199.60473207 -65.05786133 237.45410156 C-65.38786133 237.45410156 -65.71786133 237.45410156 -66.05786133 237.45410156 C-66.12800926 212.48002562 -66.18087787 187.5059645 -66.21329784 162.53180981 C-66.22875254 150.93531687 -66.24981538 139.33888523 -66.28417969 127.74243164 C-66.31412478 117.63243245 -66.33344648 107.52247766 -66.34012681 97.41243535 C-66.3440304 92.0615494 -66.35317533 86.71079046 -66.3750515 81.3599453 C-66.39549735 76.31783803 -66.40167879 71.27590943 -66.39718437 66.23376465 C-66.39800596 64.38877197 -66.40392313 62.54377298 -66.41547775 60.6988163 C-66.52268284 42.68934221 -63.52599549 27.22417266 -50.53051758 13.70800781 C-35.49062034 -0.00134559 -19.22398772 -0.1257328 0 0 Z " fill="#000000" transform="translate(418.057861328125,299.5458984375)"/>
<path d="M0 0 C0 3 0 3 -1.21484375 4.5756073 C-1.78332031 5.13742203 -2.35179687 5.69923676 -2.9375 6.27807617 C-3.89849609 7.23873238 -3.89849609 7.23873238 -4.87890625 8.21879578 C-5.57886719 8.90327286 -6.27882813 9.58774994 -7 10.29296875 C-7.71027344 10.99899734 -8.42054688 11.70502594 -9.15234375 12.43244934 C-11.42796996 14.69125019 -13.71379365 16.93941307 -16 19.1875 C-17.54234842 20.71480664 -19.08402406 22.242793 -20.625 23.77148438 C-24.40888829 27.52225221 -28.20120662 31.26433217 -32 35 C-35.81249879 33.2241334 -38.23349496 30.99634812 -41.203125 27.9921875 C-41.6857782 27.50670441 -42.1684314 27.02122131 -42.66571045 26.52102661 C-44.19858562 24.97700134 -45.72434004 23.42615176 -47.25 21.875 C-48.29120361 20.82375991 -49.33286541 19.77297343 -50.375 18.72265625 C-52.92199464 16.15366996 -55.46265177 13.57851839 -58 11 C-57.34 10.67 -56.68 10.34 -56 10 C-53.92456055 10.8203125 -53.92456055 10.8203125 -51.38671875 12.125 C-50.46826172 12.58390625 -49.54980469 13.0428125 -48.60351562 13.515625 C-46.66880647 14.5004736 -44.73647971 15.49001723 -42.80664062 16.484375 C-41.88431641 16.94328125 -40.96199219 17.4021875 -40.01171875 17.875 C-39.17084717 18.30554688 -38.32997559 18.73609375 -37.46362305 19.1796875 C-34.44719064 20.18406892 -33.00646767 19.98513039 -30 19 C-27.48133426 17.69389312 -27.48133426 17.69389312 -24.98046875 16.015625 C-24.04009766 15.40976562 -23.09972656 14.80390625 -22.13085938 14.1796875 C-21.15955078 13.54289062 -20.18824219 12.90609375 -19.1875 12.25 C-17.26446014 11.00499636 -15.3412853 9.76020117 -13.41796875 8.515625 C-12.04390869 7.62133789 -12.04390869 7.62133789 -10.64208984 6.70898438 C-7.12004249 4.43081662 -3.56477999 2.21058546 0 0 Z " fill="#000000" transform="translate(569,375)"/>
<path d="M0 0 C4.77905421 -0.18132642 9.55574179 -0.28916005 14.33764648 -0.35961914 C16.28142248 -0.39664969 18.22493351 -0.45157672 20.16772461 -0.52368164 C32.31413426 -0.96330651 40.63489138 -0.61371963 50.32592773 7.16577148 C53.77782482 9.54155732 56.14147743 10.02135952 60.29638672 10.21020508 C63.25895489 9.21884285 63.25895489 9.21884285 65.92138672 7.52270508 C66.82115234 7.00321289 67.72091797 6.4837207 68.64794922 5.94848633 C71.33609189 4.28778656 71.33609189 4.28778656 73.55078125 2.12817383 C76.93235753 -0.23405836 78.78502651 -0.26786473 82.87451172 -0.21557617 C84.11716797 -0.20719727 85.35982422 -0.19881836 86.64013672 -0.19018555 C87.92919922 -0.16118164 89.21826172 -0.13217773 90.54638672 -0.10229492 C92.50318359 -0.08779297 92.50318359 -0.08779297 94.49951172 -0.07299805 C104.12853122 0.04234958 104.12853122 0.04234958 105.29638672 1.21020508 C106.19938335 17.10714572 104.39087834 33.231573 94.29638672 46.21020508 C93.76658203 46.90629883 93.23677734 47.60239258 92.69091797 48.31958008 C84.93132775 57.85507651 75.18726781 62.73827054 63.29638672 65.21020508 C59.29175769 65.58804646 55.32738417 65.59189991 51.30737305 65.55078125 C50.164599 65.55121933 49.02182495 65.55165741 47.84442139 65.55210876 C44.10557353 65.55003581 40.3671865 65.52677506 36.62841797 65.50317383 C34.02097315 65.49757258 31.41352516 65.49330498 28.80607605 65.49031067 C22.66877728 65.48103203 16.53164118 65.45647578 10.39441365 65.4262622 C3.40036064 65.39258692 -3.59370063 65.37619939 -10.58781469 65.36117589 C-24.95983445 65.32992179 -39.33171807 65.27724386 -53.70361328 65.21020508 C-53.69992611 65.78666904 -53.69623894 66.36313301 -53.69244003 66.95706558 C-53.6038204 81.03122492 -53.53777377 95.10534204 -53.49636459 109.17972183 C-53.47580336 115.98620928 -53.4478074 122.79250965 -53.40185547 129.59887695 C-53.35748919 136.17355386 -53.33444152 142.74810984 -53.32410431 149.32292938 C-53.3167422 151.82502033 -53.30236603 154.32710128 -53.28069305 156.82910919 C-53.25144338 160.34732067 -53.24766639 163.86474216 -53.24951172 167.38305664 C-53.23513062 168.40589752 -53.22074951 169.4287384 -53.20593262 170.48257446 C-53.28185355 183.95436932 -58.63764117 195.87240758 -67.57861328 205.83520508 C-79.97274725 217.68222957 -95.18243347 220.5455629 -111.70361328 220.33520508 C-113.06428378 220.32515486 -114.42496146 220.31603262 -115.78564453 220.30786133 C-119.09181975 220.28441328 -122.39762209 220.25159364 -125.70361328 220.21020508 C-125.91516501 211.88927715 -126.07353919 203.56953091 -126.16992283 195.24655151 C-126.2162592 191.37879341 -126.2787322 187.51291582 -126.38256836 183.64624023 C-126.87425483 164.83032935 -126.16224522 149.16753645 -117.92034912 131.78782654 C-116.20110967 128.14566499 -114.64554607 124.43788808 -113.07322693 120.73049927 C-101.66572679 94.41497056 -85.74099014 69.46007276 -67.70361328 47.21020508 C-66.64334067 45.88368323 -65.58347049 44.55683966 -64.52392578 43.22973633 C-58.46804337 35.67856346 -52.25802946 28.33615662 -45.70361328 21.21020508 C-44.22396887 19.54396253 -42.74481073 17.87728806 -41.26611328 16.21020508 C-40.50943359 15.39680664 -39.75275391 14.5834082 -38.97314453 13.74536133 C-36.65013558 11.2360239 -36.65013558 11.2360239 -34.65283203 8.39379883 C-31.85536838 4.90069591 -29.20081301 1.74123483 -24.63856506 0.77107239 C-22.17774545 0.56527656 -19.74716497 0.49466967 -17.27783203 0.47192383 C-16.36053818 0.44703888 -15.44324432 0.42215393 -14.49815369 0.39651489 C-12.55278929 0.34544109 -10.60717559 0.30320042 -8.66143799 0.26919556 C-5.77222621 0.21157349 -2.88753548 0.11284529 0 0 Z " fill="#000000" transform="translate(477.70361328125,467.789794921875)"/>
<path d="M0 0 C1.60279192 0.00015914 3.20558896 0.00585476 4.80834961 0.01586914 C5.65038437 0.01728409 6.49241913 0.01869904 7.35997009 0.02015686 C10.06024671 0.02577276 12.76044163 0.03832791 15.46069336 0.05102539 C17.28686404 0.05603834 19.11303602 0.06060161 20.93920898 0.06469727 C25.42556878 0.07574735 29.9118672 0.0930226 34.39819336 0.11352539 C34.39819336 3.08352539 34.39819336 6.05352539 34.39819336 9.11352539 C25.15819336 9.44352539 15.91819336 9.77352539 6.39819336 10.11352539 C6.06819336 14.07352539 5.73819336 18.03352539 5.39819336 22.11352539 C13.97819336 22.11352539 22.55819336 22.11352539 31.39819336 22.11352539 C31.39819336 25.08352539 31.39819336 28.05352539 31.39819336 31.11352539 C22.81819336 31.11352539 14.23819336 31.11352539 5.39819336 31.11352539 C5.39819336 37.38352539 5.39819336 43.65352539 5.39819336 50.11352539 C0.94319336 50.60852539 0.94319336 50.60852539 -3.60180664 51.11352539 C-5.21589914 49.49943289 -4.72914982 47.74876131 -4.73120117 45.51782227 C-4.73435333 44.54010864 -4.73750549 43.56239502 -4.74075317 42.55505371 C-4.73872894 41.49153687 -4.73670471 40.42802002 -4.73461914 39.33227539 C-4.73557587 38.24845581 -4.73653259 37.16463623 -4.73751831 36.04797363 C-4.73820029 33.75130149 -4.73634475 31.45462744 -4.73217773 29.15795898 C-4.72682976 25.62878111 -4.73212214 22.09973052 -4.73852539 18.57055664 C-4.73786461 16.34529594 -4.73658346 14.12003532 -4.73461914 11.89477539 C-4.73664337 10.83125854 -4.7386676 9.7677417 -4.74075317 8.67199707 C-4.73760101 7.69428345 -4.73444885 6.71656982 -4.73120117 5.70922852 C-4.73040558 4.8439856 -4.72960999 3.97874268 -4.72879028 3.08728027 C-4.50155046 -0.44479445 -3.68057463 0.11600808 0 0 Z " fill="#000000" transform="translate(207.601806640625,731.886474609375)"/>
<path d="M0 0 C3.3 0.33 6.6 0.66 10 1 C10 17.5 10 34 10 51 C6.7 51 3.4 51 0 51 C0 34.17 0 17.34 0 0 Z " fill="#000000" transform="translate(253,732)"/>
<path d="M0 0 C9 0 9 0 12.3359375 3.0078125 C13.37737479 4.35877138 14.38931605 5.73284028 15.375 7.125 C16.18855957 8.19923218 16.18855957 8.19923218 17.01855469 9.29516602 C18.14090662 10.77883422 19.25220612 12.27092523 20.35253906 13.77099609 C22.4359866 16.58988702 24.60200427 19.33723763 26.77978516 22.08349609 C28.18014497 23.84940981 29.56800483 25.62446738 30.953125 27.40234375 C32.4072668 29.26273555 32.4072668 29.26273555 34 31 C34.33 20.77 34.66 10.54 35 0 C37.97 0 40.94 0 44 0 C45 1 45 1 45.12025452 3.01844788 C45.11803391 3.90447189 45.11581329 4.79049591 45.11352539 5.70336914 C45.11344986 6.70433121 45.11337433 7.70529327 45.11329651 8.73658752 C45.10813522 9.8251152 45.10297394 10.91364288 45.09765625 12.03515625 C45.0962413 13.14354355 45.09482635 14.25193085 45.09336853 15.39390564 C45.08775033 18.95013069 45.07519475 22.50629383 45.0625 26.0625 C45.05748734 28.46679597 45.05292403 30.87109292 45.04882812 33.27539062 C45.03777499 39.18361504 45.02101917 45.0918031 45 51 C36.80287396 51.53849733 36.80287396 51.53849733 33.86767578 49.56982422 C33.3982959 48.9048291 32.92891602 48.23983398 32.4453125 47.5546875 C31.62474365 46.44262939 31.62474365 46.44262939 30.78759766 45.30810547 C30.23894043 44.50518066 29.6902832 43.70225586 29.125 42.875 C27.92772211 41.22870193 26.72979662 39.58287464 25.53125 37.9375 C24.9434375 37.10992188 24.355625 36.28234375 23.75 35.4296875 C21.15204731 31.82270855 18.3933957 28.35158995 15.625 24.875 C14.09875 22.93625 12.5725 20.9975 11 19 C10.67 29.56 10.34 40.12 10 51 C6.7 51 3.4 51 0 51 C0 34.17 0 17.34 0 0 Z " fill="#000000" transform="translate(278,732)"/>
<path d="M0 0 C3.3 0 6.6 0 10 0 C16.0378307 12.9464723 22.03056153 25.90914424 27.75 39 C28.17974121 39.97783447 28.60948242 40.95566895 29.05224609 41.96313477 C29.44234863 42.86217529 29.83245117 43.76121582 30.234375 44.6875 C30.57694336 45.47511719 30.91951172 46.26273438 31.27246094 47.07421875 C32 49 32 49 32 51 C28.37 51 24.74 51 21 51 C19.68 47.7 18.36 44.4 17 41 C8.75 40.67 0.5 40.34 -8 40 C-8.99 42.97 -9.98 45.94 -11 49 C-11.33 49.66 -11.66 50.32 -12 51 C-15.3 51 -18.6 51 -22 51 C-21.41728685 47.63623657 -20.58791508 44.74457369 -19.17407227 41.64038086 C-18.80020889 40.8127977 -18.42634552 39.98521454 -18.04115295 39.1325531 C-17.63698654 38.25220901 -17.23282013 37.37186493 -16.81640625 36.46484375 C-16.40083969 35.5491713 -15.98527313 34.63349884 -15.55711365 33.69007874 C-14.23047149 30.77029614 -12.89650021 27.85392699 -11.5625 24.9375 C-10.66815583 22.97091406 -9.77427045 21.0041194 -8.88085938 19.03710938 C-7.24170521 15.43358227 -5.6017191 11.83044918 -3.95532227 8.23022461 C-3.62524673 7.50806259 -3.2951712 6.78590057 -2.95509338 6.04185486 C-2.00519119 4.01109804 -1.0026253 2.0052506 0 0 Z M4 12 C2.82905995 14.7899439 1.66309073 17.58178597 0.5 20.375 C0.16613281 21.1690625 -0.16773438 21.963125 -0.51171875 22.78125 C-0.98544922 23.92207031 -0.98544922 23.92207031 -1.46875 25.0859375 C-1.76201172 25.7876709 -2.05527344 26.4894043 -2.35742188 27.21240234 C-3.11275781 28.99708561 -3.11275781 28.99708561 -3 31 C2.28 31 7.56 31 13 31 C10.93991112 24.27760471 8.28217236 18.21407336 5 12 C4.67 12 4.34 12 4 12 Z " fill="#000000" transform="translate(354,732)"/>
<path d="M0 0 C8.19658404 -0.50427368 8.19658404 -0.50427368 11.13232422 1.33837891 C11.6017041 1.96147949 12.07108398 2.58458008 12.5546875 3.2265625 C13.1017334 3.92273682 13.6487793 4.61891113 14.21240234 5.33618164 C14.76105957 6.0914917 15.3097168 6.84680176 15.875 7.625 C16.46361816 8.3873999 17.05223633 9.1497998 17.65869141 9.93530273 C18.86724307 11.50426817 20.0643735 13.08209658 21.25 14.66845703 C23.41599023 17.55422805 25.65391634 20.37822453 27.89892578 23.20263672 C29.95067544 25.78785486 31.97572801 28.39323341 34 31 C34.03758423 29.64467163 34.03758423 29.64467163 34.07592773 28.26196289 C34.17087317 24.9203572 34.27011621 21.57893748 34.37231445 18.23754883 C34.4157163 16.7893576 34.45738744 15.34111346 34.49731445 13.89282227 C34.55489062 11.81510441 34.61862028 9.73765427 34.68359375 7.66015625 C34.72025146 6.40855713 34.75690918 5.15695801 34.79467773 3.86743164 C35 1 35 1 36 0 C37.51928038 -0.07179964 39.04167482 -0.08392007 40.5625 -0.0625 C41.38878906 -0.05347656 42.21507812 -0.04445313 43.06640625 -0.03515625 C43.70449219 -0.02355469 44.34257812 -0.01195312 45 0 C45.98130583 2.94391748 46.09389457 4.69179645 46.02172852 7.74682617 C46.00163223 8.70759567 45.98153595 9.66836517 45.96083069 10.6582489 C45.92027809 12.20993523 45.92027809 12.20993523 45.87890625 13.79296875 C45.84348976 15.38471672 45.84348976 15.38471672 45.80735779 17.00862122 C45.73071549 20.4017167 45.64669324 23.79458429 45.5625 27.1875 C45.5092799 29.48631693 45.4565395 31.78514502 45.40429688 34.08398438 C45.27509954 39.7227976 45.1398408 45.36144123 45 51 C37.28564453 51.20654297 37.28564453 51.20654297 34.71484375 49.34765625 C34.12832031 48.59355469 33.54179687 47.83945312 32.9375 47.0625 C32.27234375 46.23234375 31.6071875 45.4021875 30.921875 44.546875 C30.28765625 43.70640625 29.6534375 42.8659375 29 42 C28.44828125 41.30390625 27.8965625 40.6078125 27.328125 39.890625 C26.21034397 38.47476903 25.1039748 37.04984614 24.0078125 35.6171875 C21.38753998 32.20165718 18.72481819 28.8202929 16.0625 25.4375 C14.391875 23.313125 12.72125 21.18875 11 19 C10.67 29.56 10.34 40.12 10 51 C7.03 51 4.06 51 1 51 C0 50 0 50 -0.12025452 47.98155212 C-0.11803391 47.09552811 -0.11581329 46.20950409 -0.11352539 45.29663086 C-0.11344986 44.29566879 -0.11337433 43.29470673 -0.11329651 42.26341248 C-0.10813522 41.1748848 -0.10297394 40.08635712 -0.09765625 38.96484375 C-0.0962413 37.85645645 -0.09482635 36.74806915 -0.09336853 35.60609436 C-0.08775033 32.04986931 -0.07519475 28.49370617 -0.0625 24.9375 C-0.05748734 22.53320403 -0.05292403 20.12890708 -0.04882812 17.72460938 C-0.03777499 11.81638496 -0.02101917 5.9081969 0 0 Z " fill="#000000" transform="translate(394,732)"/>
<path d="M0 0 C-3.625 5.875 -3.625 5.875 -7 7 C-8.7265625 6.22265625 -8.7265625 6.22265625 -10.625 5.0625 C-15.1503163 2.66674431 -18.95347908 2.2322547 -24 3 C-28.71878688 4.69164058 -31.20582817 6.86048618 -34 11 C-35.7354912 16.2064736 -35.66344383 21.14934089 -33.8125 26.3125 C-31.4417781 29.82770834 -28.78719238 32.10640381 -25 34 C-19.62099617 34.54414467 -14.72663442 34.88640853 -10.0625 31.875 C-9.051875 31.25625 -8.04125 30.6375 -7 30 C-3.88624628 30.77843843 -2.13131283 32.65555588 0 35 C-1.84620922 39.68038985 -4.74680839 40.90175412 -9.15234375 42.94921875 C-17.33677269 45.9692618 -25.07969064 45.57861154 -33 42 C-38.81356235 38.89943341 -42.47710493 34.93946369 -45.1484375 28.90625 C-47.33709878 21.43669041 -47.19390379 13.69989725 -44 6.5625 C-39.88888026 -0.4000649 -35.04835096 -4.71789775 -27.25 -7.0625 C-16.61870197 -9.20752861 -8.34963225 -6.70500771 0 0 Z " fill="#000000" transform="translate(497,739)"/>
<path d="M0 0 C12.87 0 25.74 0 39 0 C39 2.97 39 5.94 39 9 C29.76 9.33 20.52 9.66 11 10 C10.67 13.63 10.34 17.26 10 21 C18.58 21 27.16 21 36 21 C36 23.64 36 26.28 36 29 C27.30019136 30.01286753 18.74507107 30.10621544 10 30 C10 33.96 10 37.92 10 42 C19.9 42 29.8 42 40 42 C40 44.64 40 47.28 40 50 C39 51 39 51 35.30639648 51.11352539 C33.66128709 51.11327427 32.01617243 51.10771184 30.37109375 51.09765625 C29.22259949 51.09614563 29.22259949 51.09614563 28.05090332 51.09460449 C25.17975373 51.08935663 22.30862542 51.07539547 19.4375 51.0625 C13.023125 51.041875 6.60875 51.02125 0 51 C0 34.17 0 17.34 0 0 Z " fill="#000000" transform="translate(507,732)"/>
<path d="M0 0 C13.86 0 27.72 0 42 0 C42 2.97 42 5.94 42 9 C38 10 38 10 26 10 C26 23.53 26 37.06 26 51 C22.7 51 19.4 51 16 51 C16 37.47 16 23.94 16 10 C10.72 9.67 5.44 9.34 0 9 C0 6.03 0 3.06 0 0 Z " fill="#000000" transform="translate(553,732)"/>
<path d="M0 0 C1.75280273 -0.0309375 1.75280273 -0.0309375 3.54101562 -0.0625 C12.50872511 -0.10296344 19.70909214 0.71948649 26.4375 7.25 C29.3869065 11.37916909 29.84601832 16.65393198 29.07421875 21.55859375 C27.39464744 27.66893599 24.31340136 30.38284962 19.4375 34.25 C19.74042969 34.72945068 20.04335938 35.20890137 20.35546875 35.70288086 C21.71846482 37.86296752 23.07802314 40.02519693 24.4375 42.1875 C24.91445313 42.94224609 25.39140625 43.69699219 25.8828125 44.47460938 C26.55957031 45.55258789 26.55957031 45.55258789 27.25 46.65234375 C27.66894531 47.31741943 28.08789062 47.98249512 28.51953125 48.66772461 C29.4375 50.25 29.4375 50.25 29.4375 51.25 C25.57488037 51.95293997 22.27517699 52.17285794 18.4375 51.25 C13.92490652 46.98289161 11.1908385 41.756677 8.4375 36.25 C4.8075 36.25 1.1775 36.25 -2.5625 36.25 C-2.8925 41.2 -3.2225 46.15 -3.5625 51.25 C-10.49609375 51.34765625 -10.49609375 51.34765625 -12.5625 51.25 C-14.1765925 49.6359075 -13.68984318 47.88523592 -13.69189453 45.65429688 C-13.69504669 44.67658325 -13.69819885 43.69886963 -13.70144653 42.69152832 C-13.6994223 41.62801147 -13.69739807 40.56449463 -13.6953125 39.46875 C-13.69626923 38.38493042 -13.69722595 37.30111084 -13.69821167 36.18444824 C-13.69889365 33.8877761 -13.69703811 31.59110205 -13.69287109 29.29443359 C-13.68752312 25.76525572 -13.6928155 22.23620513 -13.69921875 18.70703125 C-13.69855797 16.48177055 -13.69727682 14.25650993 -13.6953125 12.03125 C-13.69733673 10.96773315 -13.69936096 9.90421631 -13.70144653 8.80847168 C-13.69829437 7.83075806 -13.69514221 6.85304443 -13.69189453 5.84570312 C-13.69109894 4.98046021 -13.69030334 4.11521729 -13.68948364 3.22375488 C-13.34295807 -2.16242349 -4.01416434 0.01731176 0 0 Z M-3.5625 10.25 C-3.63569621 12.94654854 -3.65492537 15.61691458 -3.625 18.3125 C-3.62048828 19.07111328 -3.61597656 19.82972656 -3.61132812 20.61132812 C-3.5995068 22.49091871 -3.58157078 24.37046899 -3.5625 26.25 C-0.8322611 26.3583667 1.89364543 26.43746694 4.625 26.5 C5.39392578 26.53351562 6.16285156 26.56703125 6.95507812 26.6015625 C10.90390715 26.66935356 12.96869116 26.52448393 16.453125 24.484375 C18.53851137 22.13626279 19.10213975 21.32620907 19 18.25 C18.80770003 15.2127917 18.50836344 14.34529911 16.625 11.8125 C12.60377284 8.94019489 9.12402885 9.11512006 4.3125 9.125 C3.05179688 9.12242187 1.79109375 9.11984375 0.4921875 9.1171875 C-2.43764132 8.89989978 -2.43764132 8.89989978 -3.5625 10.25 Z " fill="#000000" transform="translate(617.5625,731.75)"/>
<path d="M0 0 C1.37478516 0.01740234 1.37478516 0.01740234 2.77734375 0.03515625 C3.69644531 0.04417969 4.61554687 0.05320312 5.5625 0.0625 C6.27277344 0.07410156 6.98304688 0.08570313 7.71484375 0.09765625 C9.90379908 5.00405482 12.09080407 9.91131665 14.27612305 14.81933594 C15.01746919 16.48362831 15.7593179 18.14769692 16.50170898 19.81152344 C19.95418737 27.54991734 23.40531649 35.28956838 26.734375 43.08203125 C27.12343018 43.99178711 27.51248535 44.90154297 27.91333008 45.83886719 C28.71484375 48.09765625 28.71484375 48.09765625 28.71484375 51.09765625 C25.41484375 51.09765625 22.11484375 51.09765625 18.71484375 51.09765625 C14.71484375 42.34765625 14.71484375 42.34765625 14.71484375 40.09765625 C2.33984375 40.59265625 2.33984375 40.59265625 -10.28515625 41.09765625 C-12.26515625 46.04765625 -12.26515625 46.04765625 -14.28515625 51.09765625 C-17.91515625 51.09765625 -21.54515625 51.09765625 -25.28515625 51.09765625 C-20.36015448 39.45327223 -15.32756009 27.85970522 -10.16635132 16.31820679 C-9.57820388 15.00297671 -8.99082346 13.68740337 -8.40420532 12.37149048 C-7.57536789 10.51346468 -6.74284293 8.65708517 -5.91015625 6.80078125 C-5.42804687 5.72473633 -4.9459375 4.64869141 -4.44921875 3.54003906 C-2.81942892 0.12048842 -2.81942892 0.12048842 0 0 Z M1.71484375 12.09765625 C0.54141215 14.69896252 -0.62408133 17.30334133 -1.78515625 19.91015625 C-2.11902344 20.64814453 -2.45289063 21.38613281 -2.796875 22.14648438 C-3.27060547 23.21479492 -3.27060547 23.21479492 -3.75390625 24.3046875 C-4.04716797 24.95928955 -4.34042969 25.6138916 -4.64257812 26.28833008 C-5.45249049 28.24881693 -5.45249049 28.24881693 -5.28515625 31.09765625 C-0.33515625 31.09765625 4.61484375 31.09765625 9.71484375 31.09765625 C8.82141192 26.63049711 7.47948014 22.90151224 5.65234375 18.78515625 C5.37068359 18.13998047 5.08902344 17.49480469 4.79882812 16.83007812 C4.10856945 15.25067267 3.41231177 13.67389132 2.71484375 12.09765625 C2.38484375 12.09765625 2.05484375 12.09765625 1.71484375 12.09765625 Z " fill="#000000" transform="translate(676.28515625,731.90234375)"/>
<path d="M0 0 C0.66 0.99 1.32 1.98 2 3 C0.35 4.98 -1.3 6.96 -3 9 C-7.69361147 7.17470665 -7.69361147 7.17470665 -9.8359375 5.953125 C-14.02496491 4.1081382 -18.52580868 4.49348777 -23 5 C-27.95548536 7.16239361 -30.18493161 10.10734455 -32.3046875 14.92578125 C-33.93235879 19.78136244 -33.39106587 23.60476203 -31.375 28.1875 C-29.18883065 32.0832689 -27.1862839 34.17325793 -23 36 C-17.55518761 36.78958004 -12.80465862 36.87972982 -8.0625 33.875 C-5 32 -5 32 -2.75 32.4375 C-0.58126151 34.37387365 0.65186215 36.43853808 2 39 C-5.3732741 44.31678268 -11.61025426 47.79574116 -21 47 C-29.09308888 45.63993015 -34.64811962 42.21297722 -40 36 C-44.45379186 29.54140156 -44.94987682 22.64900804 -44 15 C-42.22197308 6.83991621 -37.81617944 1.68971537 -31 -3 C-20.31563134 -7.79999249 -9.69199527 -6.44890454 0 0 Z " fill="#000000" transform="translate(753,737)"/>
<path d="M0 0 C8 0 8 0 10 1 C10.33 8.26 10.66 15.52 11 23 C13.35125 20.504375 15.7025 18.00875 18.125 15.4375 C18.85348145 14.66591553 19.58196289 13.89433105 20.33251953 13.09936523 C20.92661621 12.46716064 21.52071289 11.83495605 22.1328125 11.18359375 C23.11507812 10.14005737 23.11507812 10.14005737 24.1171875 9.07543945 C25.89893129 7.11140886 27.54389932 5.08129445 29.1953125 3.0078125 C31.0558224 0.81356618 31.67303261 0.09922124 34.484375 -0.75390625 C35.60585938 -0.65916016 35.60585938 -0.65916016 36.75 -0.5625 C37.88695312 -0.50255859 37.88695312 -0.50255859 39.046875 -0.44140625 C41 0 41 0 43 2 C42.59160889 2.43344727 42.18321777 2.86689453 41.76245117 3.31347656 C39.90204958 5.29036787 38.04475273 7.27015029 36.1875 9.25 C35.54490234 9.93191406 34.90230469 10.61382813 34.24023438 11.31640625 C33.61826172 11.98027344 32.99628906 12.64414062 32.35546875 13.328125 C31.78465576 13.9355957 31.21384277 14.54306641 30.62573242 15.16894531 C28.95228237 17.05374414 27.39119461 18.89612418 26 21 C27.01310484 26.04775042 30.91382364 30.38843858 33.875 34.5 C34.40480469 35.24636719 34.93460938 35.99273438 35.48046875 36.76171875 C37.70224496 39.87661592 39.92397442 42.90926783 42.3828125 45.84375 C44 48 44 48 44 51 C40.18456959 51.59413874 36.79928817 51.77321078 33 51 C29.76280779 48.32519203 27.74950162 45.05482575 25.5625 41.5 C24.40861718 39.7112908 23.24375274 37.92960315 22.06640625 36.15625 C21.57084229 35.36025391 21.07527832 34.56425781 20.56469727 33.74414062 C20.04834717 33.16857422 19.53199707 32.59300781 19 32 C14.98005577 31.54341155 14.98005577 31.54341155 12.7890625 34.078125 C10.67442187 37.53173022 10.47503703 39.73033012 10.375 43.75 C10.31419166 45.83619393 10.20534848 47.92304676 10 50 C8 51 8 51 0 51 C0 34.17 0 17.34 0 0 Z " fill="#000000" transform="translate(765,732)"/>
</svg>
