<svg version="1.1" id="Layer_1" xmlns="http://www.w3.org/2000/svg" xmlns:xlink="http://www.w3.org/1999/xlink" x="0px" y="0px"
	 width="100%" viewBox="0 0 1024 1024" enable-background="new 0 0 1024 1024" xml:space="preserve">
<path fill="#000000" opacity="1.000000" stroke="none" 
	d="
M571.068237,769.289795 
	C547.446899,772.544617 524.140747,772.802917 500.822266,772.229065 
	C471.120850,771.498108 441.799042,767.368530 412.861206,760.864075 
	C339.499756,744.374390 273.288696,712.748840 214.782990,665.472534 
	C189.543060,645.077087 166.719818,622.218262 149.449493,594.405273 
	C141.829193,582.133118 135.705338,569.178223 135.107925,554.441895 
	C134.789612,546.590088 136.763519,538.959473 139.593369,531.614502 
	C148.016632,509.751526 162.001450,491.514282 177.770004,474.664520 
	C227.008987,422.049286 285.919250,383.756622 352.966309,357.800201 
	C391.686371,342.810181 431.914825,334.047577 473.147186,329.848907 
	C498.372589,327.280243 523.713196,326.988892 548.965576,328.912415 
	C590.418396,332.069946 631.012146,339.845367 670.305298,353.771332 
	C673.017578,354.732605 675.424561,356.058197 677.606445,357.950012 
	C697.399414,375.111938 714.162170,394.831024 727.882690,417.152191 
	C729.108765,419.146790 729.218933,421.202881 729.219543,423.376068 
	C729.243652,503.366730 729.272278,583.357422 729.294678,663.348083 
	C729.295105,665.005554 729.386963,666.666931 728.426270,668.184448 
	C721.556702,679.036560 714.079224,689.445374 705.801025,699.269714 
	C705.423767,699.717407 704.762939,699.926147 704.034607,700.367004 
	C702.070496,697.608887 702.873535,694.687805 702.871582,691.989075 
	C702.800720,595.500305 702.745972,499.011475 702.875793,402.522919 
	C702.882812,397.315125 701.478577,394.591248 696.506287,392.426849 
	C657.347778,375.381531 616.758118,363.707397 574.370544,358.101532 
	C544.374084,354.134399 514.318604,353.164093 484.208649,355.463196 
	C431.070190,359.520721 380.291992,372.841492 331.957275,395.392853 
	C328.913483,396.812988 327.961914,398.735016 327.951813,401.981689 
	C327.852600,433.805298 327.494202,465.628265 327.442169,497.451782 
	C327.351166,553.079041 327.398590,608.706604 327.449219,664.333984 
	C327.459961,676.153564 327.835754,687.972961 327.822357,699.792236 
	C327.818359,703.347168 329.296509,705.151672 332.442963,706.530151 
	C367.505127,721.890747 403.763153,733.156433 441.529175,739.747131 
	C473.517700,745.329590 505.743469,747.171509 538.030884,745.486572 
	C591.710266,742.685181 643.241943,730.164856 692.423950,708.284424 
	C694.198303,707.495056 695.848145,706.203064 698.392029,706.562195 
	C698.010803,709.136230 696.010071,710.493591 694.502136,712.014099 
	C676.772522,729.891907 656.819519,744.817810 634.401978,756.294434 
	C626.483643,760.348206 617.480103,761.101501 608.902527,763.003418 
	C596.564941,765.739075 584.072388,767.724487 571.068237,769.289795 
M260.420898,473.500946 
	C260.410492,535.808777 260.434937,598.116699 260.310730,660.424316 
	C260.302490,664.553406 261.535675,667.112061 265.084167,669.357056 
	C275.219910,675.769226 285.330292,682.213379 295.822266,688.029724 
	C297.445190,688.929443 298.944275,690.616150 301.634430,689.692932 
	C301.676605,597.429504 300.868164,505.119629 301.685486,413.026672 
	C298.820557,412.258301 297.578705,413.615601 296.201538,414.403107 
	C285.350983,420.607788 274.895447,427.424500 264.642670,434.576630 
	C262.023254,436.403870 260.892883,438.360046 260.886414,441.530670 
	C260.865356,451.854645 260.596313,462.178131 260.420898,473.500946 
M174.246017,521.703430 
	C171.086609,526.415955 168.588593,531.496338 165.887238,536.471252 
	C160.404968,546.567383 159.932098,556.729553 164.850616,567.103394 
	C166.418411,570.410095 167.984436,573.738281 169.847366,576.881104 
	C185.888596,603.943420 208.340118,625.195435 232.061661,645.281555 
	C232.524704,645.673523 233.159302,645.862976 234.000259,646.293518 
	C234.000259,583.595459 234.000259,521.250122 234.000259,457.829987 
	C211.072754,477.080566 190.774460,497.122375 174.246017,521.703430 
z"/>
<path fill="#000000" opacity="1.000000" stroke="none" 
	d="
M582.974365,817.278687 
	C569.619751,818.458862 556.899963,818.080994 544.654419,813.224854 
	C539.199524,811.061646 534.059692,808.345947 529.527405,804.592834 
	C528.315796,803.589539 526.593262,802.843079 526.737488,800.689148 
	C528.166748,799.061340 530.120178,799.757385 531.832764,799.726807 
	C590.781372,798.675964 642.932007,778.798279 688.743042,742.219849 
	C730.388000,708.967896 759.447021,666.913818 774.289062,615.487061 
	C779.881042,596.111450 782.897644,576.326904 784.033752,556.096558 
	C786.212280,517.302551 779.818237,480.031403 764.626343,444.542969 
	C731.471252,367.091827 674.105042,316.345123 593.386108,292.097565 
	C585.276733,289.661591 585.201233,289.795197 588.099060,281.829742 
	C590.037598,276.501099 590.426819,270.871918 591.142090,264.962067 
	C597.789246,265.324066 603.884766,266.872223 609.924438,268.424744 
	C689.642761,288.916840 750.463562,334.541992 791.387817,406.041412 
	C810.035400,438.620850 821.127380,473.845673 825.408691,511.218140 
	C833.480835,581.679993 816.855103,646.094299 775.692444,703.384705 
	C730.893494,765.736145 670.060425,803.676086 593.858765,816.070312 
	C590.412415,816.630859 586.914124,816.871399 582.974365,817.278687 
z"/>
<path fill="#000000" opacity="1.000000" stroke="none" 
	d="
M510.885986,573.605225 
	C508.967102,568.194580 509.829010,562.976990 509.828278,557.851868 
	C509.827728,554.129517 508.396393,552.794983 504.796143,552.904785 
	C499.301239,553.072388 493.797546,553.019043 488.298615,552.962341 
	C485.385468,552.932312 484.001617,554.139648 484.085419,557.138916 
	C484.183167,560.635742 484.218079,564.143188 484.064209,567.636475 
	C483.708557,575.710083 478.018372,581.369873 470.465118,581.321350 
	C463.277008,581.275146 458.009674,575.562988 457.750427,567.424377 
	C457.644379,564.094360 457.615204,560.754761 457.739532,557.426636 
	C457.851074,554.441772 456.654388,553.204712 453.623169,553.312378 
	C442.307312,553.714417 430.988159,554.037842 419.668152,554.298218 
	C417.009064,554.359436 416.201141,555.702087 416.240448,558.083984 
	C416.284393,560.749451 416.300995,563.419678 416.195496,566.082520 
	C415.889496,573.807129 410.630890,579.228943 403.413239,579.345825 
	C396.074402,579.464661 390.730927,574.430542 389.813599,566.787659 
	C389.410461,563.428528 391.578766,559.166443 388.432648,556.906311 
	C385.840454,555.044189 381.945190,556.500977 378.633148,556.332947 
	C371.361023,555.964050 366.556366,550.679382 366.634308,543.126953 
	C366.710449,535.751343 371.329498,530.961914 378.700287,530.624634 
	C379.698395,530.578857 380.735382,530.733032 381.691284,530.516296 
	C390.001953,528.632019 389.743439,531.496094 389.955383,521.753723 
	C390.151917,512.720947 395.350250,507.498749 403.364716,507.665466 
	C411.204926,507.828583 416.394836,513.451294 416.191833,522.244446 
	C416.092285,526.556641 417.303680,528.201111 421.819733,527.990295 
	C432.624329,527.485718 443.447845,527.318359 454.265656,527.212036 
	C456.983551,527.185303 457.767090,526.103027 457.722198,523.644348 
	C457.655304,519.979675 457.616791,516.305420 457.802551,512.647217 
	C458.163818,505.533875 463.440582,499.987701 469.937897,499.686340 
	C477.284546,499.345551 483.127075,504.221771 483.961670,511.731262 
	C484.346436,515.193481 484.265778,518.725281 484.161194,522.218506 
	C484.069336,525.287170 484.997894,526.862671 488.400726,526.760376 
	C494.228455,526.585083 500.066315,526.646545 505.897827,526.739807 
	C508.662689,526.783936 509.836151,525.655762 509.754059,522.881958 
	C509.645691,519.218689 509.628387,515.546509 509.749847,511.884003 
	C509.986237,504.755371 515.037781,499.237793 521.662354,498.710785 
	C528.588013,498.159851 534.518066,502.903625 535.580627,510.248138 
	C536.077942,513.685852 536.129456,517.240967 535.919250,520.714783 
	C535.654541,525.090149 536.935242,527.470764 541.757751,526.824768 
	C543.065918,526.649536 544.421509,526.859741 545.753357,526.823120 
	C548.905579,526.736450 552.514038,527.535156 555.093079,526.262939 
	C558.366699,524.648132 556.218811,520.539062 556.723755,517.561951 
	C557.721069,511.682648 563.451050,506.750732 569.443909,506.868378 
	C576.064941,506.998352 581.855591,512.195740 582.377808,518.477173 
	C583.134705,527.580627 583.134888,527.575378 592.509094,527.759277 
	C595.174622,527.811523 597.914185,527.535583 600.488342,528.057800 
	C605.293518,529.032593 606.823059,527.574707 606.800049,522.550903 
	C606.751160,511.873230 617.697754,506.109222 626.714661,511.763794 
	C631.119324,514.526001 632.811035,518.762512 632.295837,523.760498 
	C631.827515,528.304016 633.420288,529.986084 638.104797,529.845642 
	C643.066772,529.696960 648.062927,530.352783 653.030457,530.806702 
	C660.061096,531.449158 665.443481,537.523071 665.174316,544.343140 
	C664.895264,551.411194 659.451599,556.381348 651.858215,556.356018 
	C647.027161,556.339905 642.151733,556.507019 637.379333,555.917786 
	C633.086609,555.387878 631.990784,557.090759 632.361633,560.854126 
	C632.475464,562.009338 632.405212,563.186462 632.369385,564.352051 
	C632.154968,571.325928 626.812195,576.884644 620.151062,577.081116 
	C613.057251,577.290344 607.056091,571.617126 606.695984,564.361206 
	C606.204102,554.451599 606.204041,554.451599 596.400635,554.235657 
	C596.067444,554.228333 595.732239,554.191772 595.401306,554.215393 
	C591.440430,554.497375 586.744019,552.462952 583.694763,554.890991 
	C580.607849,557.348999 582.838379,562.116760 582.410706,565.843201 
	C581.727783,571.794739 575.800476,577.195923 569.725464,577.176270 
	C563.372375,577.155701 557.434448,571.831238 556.750061,565.523315 
	C556.678467,564.862915 556.706543,564.191528 556.691895,563.525146 
	C556.464294,553.185730 556.464417,553.163757 545.782410,553.123230 
	C534.854797,553.081726 536.078064,552.343689 536.033691,562.685974 
	C536.027283,564.185913 536.062378,565.686523 536.028320,567.185669 
	C535.862000,574.512024 532.035889,579.818481 525.787720,581.417908 
	C519.936523,582.915710 514.884155,580.369629 510.885986,573.605225 
z"/>
<path fill="#000000" opacity="1.000000" stroke="none" 
	d="
M886.368958,575.170593 
	C878.243469,595.315491 865.292847,611.797180 851.202881,627.421509 
	C844.297180,635.079346 836.684814,642.102905 829.331970,649.352417 
	C827.590820,651.069092 825.866821,652.909851 822.408386,654.014282 
	C824.449524,648.521179 826.155518,643.651123 828.060669,638.860168 
	C832.257080,628.307312 834.811279,617.278992 837.388977,606.277588 
	C838.065186,603.391296 839.104980,601.005249 840.933533,598.776611 
	C848.771118,589.223816 855.759460,579.156189 861.015015,567.873291 
	C865.718201,557.776306 865.595398,548.021545 860.832092,538.079773 
	C857.151428,530.397644 853.356750,522.718018 847.836731,516.242798 
	C843.035095,510.610291 841.284241,504.334534 840.503967,497.209656 
	C839.364014,486.801331 837.047363,476.564362 834.104431,466.492035 
	C833.651733,464.942596 833.328186,463.355408 832.971558,461.894775 
	C834.485962,461.033966 835.220276,461.930359 835.877930,462.546478 
	C856.213379,481.597748 873.886108,502.658905 885.372253,528.365845 
	C892.217407,543.685791 893.160522,559.153320 886.368958,575.170593 
z"/>
<path fill="#000000" opacity="1.000000" stroke="none" 
	d="
M572.661621,264.611176 
	C573.892212,279.525482 565.557739,292.572052 552.338989,296.969604 
	C539.272705,301.316467 524.329407,295.879211 517.065308,284.135010 
	C509.985962,272.689514 511.687775,257.089417 521.401550,247.288605 
	C529.598145,239.018478 539.786804,236.540848 550.786682,239.560440 
	C563.120850,242.946350 570.412354,251.470749 572.661621,264.611176 
z"/>
</svg>